# xmcd CD database file
#
# Track frame offsets:
#        150
#        19560
#        40492
#        61940
#        84706
#        107806
#
# Disc length: 1748 seconds
#
# Revision: 0
# Processed by: cddbd v1.5.2PL0 Copyright (c) Steve Scherf et al.
# Submitted via: CUERipper 2.1.5
#
DISCID=4606d206
DTITLE=Triggers and Slips - Triggers and Slips
DYEAR=2012
DGENRE=Country
TTITLE0=4 Letters
TTITLE1=Old Friends
TTITLE2=WArm Sunshine
TTITLE3=Too Good To Be True
TTITLE4=Come Down
TTITLE5=Aftermath
EXTD=
EXTT0=
EXTT1=
EXTT2=
EXTT3=
EXTT4=
EXTT5=
PLAYORDER=
